<svg width="393" height="800" viewBox="0 0 393 800" fill="none" xmlns="http://www.w3.org/2000/svg">
<path d="M44.3998 1.99993C33.8665 3.33326 21.8665 8.39993 15.4665 14.3999C9.59982 19.9999 3.86648 32.1333 1.99982 43.0666C1.06648 49.4666 0.666484 152.4 0.933151 406L1.33315 760L4.79982 768.933C6.66648 773.733 10.1332 780.133 12.3998 782.933C17.3332 789.2 29.1998 795.733 39.0665 797.867C43.9998 798.933 91.3331 799.333 195.6 799.333C356.133 799.333 352.666 799.467 366.133 792.667C372.933 789.067 381.333 779.2 384.933 770.133L388 762.667L388.4 603.6C388.666 464.533 388.933 444.667 390.666 444.667C393.733 444.667 393.6 346.667 390.666 345.467C389.066 344.933 388.666 341.867 388.666 329.333C388.666 316.533 389.066 314 390.666 314C392.4 314 392.666 310.4 392.666 290C392.666 269.733 392.4 266 390.666 266C389.066 266 388.666 251.2 388.4 152.267C388 45.3333 387.866 38.2666 385.466 31.8666C379.2 14.3999 365.733 4.53326 344.666 1.99993C331.333 0.399926 58.1331 0.399926 44.3998 1.99993ZM375.333 406V726H194.666H13.9998V406V85.9999H194.666H375.333V406Z" fill="black"/>
</svg>
