<svg width="704" height="326" viewBox="0 0 704 326" fill="none" xmlns="http://www.w3.org/2000/svg">
<path d="M367.52 139.08C365.147 139.08 362.92 138.92 360.84 138.6C358.787 138.307 356.907 137.92 355.2 137.44C353.52 136.933 352.04 136.413 350.76 135.88L349.68 124.36C351.787 125.347 354.28 126.267 357.16 127.12C360.04 127.947 363.094 128.36 366.32 128.36C369.44 128.36 371.654 127.973 372.96 127.2C374.294 126.4 374.96 125.16 374.96 123.48V123.2C374.96 122.08 374.654 121.173 374.04 120.48C373.454 119.76 372.454 119.107 371.04 118.52C369.654 117.907 367.774 117.253 365.4 116.56C361.827 115.493 358.84 114.307 356.44 113C354.067 111.693 352.294 110.067 351.12 108.12C349.947 106.147 349.36 103.653 349.36 100.64V100.12C349.36 95.48 350.934 91.9333 354.08 89.48C357.254 87.0267 361.907 85.8 368.04 85.8C371.72 85.8 374.894 86.12 377.56 86.76C380.254 87.4 382.534 88.16 384.4 89.04L385.48 99.76C383.427 98.7733 381.094 97.9467 378.48 97.28C375.894 96.5867 373.12 96.24 370.16 96.24C368.08 96.24 366.44 96.4133 365.24 96.76C364.067 97.1067 363.24 97.6133 362.76 98.28C362.28 98.92 362.04 99.7067 362.04 100.64V100.8C362.04 101.76 362.307 102.6 362.84 103.32C363.4 104.04 364.387 104.733 365.8 105.4C367.24 106.067 369.28 106.787 371.92 107.56C375.467 108.6 378.4 109.72 380.72 110.92C383.067 112.093 384.814 113.627 385.96 115.52C387.134 117.387 387.72 119.88 387.72 123V123.64C387.72 128.787 386.054 132.653 382.72 135.24C379.387 137.8 374.32 139.08 367.52 139.08ZM406.207 138V89.28H418.727V138H406.207ZM392.087 97.32V86.88H432.807V97.32H392.087ZM441.09 138V86.88H453.33V138H441.09ZM444.73 138V127.56H476.89V138H444.73ZM448.25 117.08V107.04H475.93V117.08H448.25ZM444.69 97.2V86.88H476.53V97.2H444.69ZM482.72 138L497.36 86.88H516.16L530.72 138H518.08L507.24 95.12H506.32L495.36 138H482.72ZM495.16 125.96V116.24H518.2V125.96H495.16ZM550.404 138H537.884V86.88H550.404V138ZM545.004 127.48H571.724V138H545.004V127.48ZM585.029 138V89.28H597.549V138H585.029ZM570.909 97.32V86.88H611.629V97.32H570.909ZM632.432 138H619.912V86.88H632.432V138ZM662.912 138H650.352V86.88H662.912V138ZM627.112 106.64H655.072V117.08H627.112V106.64Z" fill="#FF0000"/>
<path d="M363.673 198.878C361.745 198.878 359.935 198.748 358.245 198.488C356.577 198.249 355.05 197.935 353.663 197.545C352.298 197.133 351.095 196.711 350.055 196.277L349.178 186.917C350.89 187.719 352.915 188.467 355.255 189.16C357.595 189.832 360.076 190.167 362.698 190.167C365.233 190.167 367.031 189.853 368.093 189.225C369.176 188.575 369.718 187.567 369.718 186.202V185.975C369.718 185.065 369.469 184.328 368.97 183.765C368.494 183.18 367.681 182.649 366.533 182.172C365.406 181.674 363.879 181.143 361.95 180.58C359.047 179.713 356.62 178.749 354.67 177.688C352.742 176.626 351.301 175.304 350.348 173.722C349.395 172.119 348.918 170.093 348.918 167.645V167.222C348.918 163.452 350.196 160.571 352.753 158.577C355.331 156.584 359.112 155.587 364.095 155.587C367.085 155.587 369.664 155.847 371.83 156.367C374.019 156.887 375.871 157.505 377.388 158.22L378.265 166.93C376.597 166.128 374.701 165.457 372.578 164.915C370.476 164.352 368.223 164.07 365.818 164.07C364.128 164.07 362.795 164.211 361.82 164.492C360.867 164.774 360.195 165.186 359.805 165.727C359.415 166.247 359.22 166.887 359.22 167.645V167.775C359.22 168.555 359.437 169.237 359.87 169.822C360.325 170.407 361.127 170.971 362.275 171.512C363.445 172.054 365.103 172.639 367.248 173.267C370.13 174.112 372.513 175.022 374.398 175.997C376.305 176.951 377.724 178.197 378.655 179.735C379.609 181.252 380.085 183.277 380.085 185.812V186.332C380.085 190.514 378.731 193.656 376.023 195.757C373.315 197.837 369.198 198.878 363.673 198.878ZM399.296 198H389.123V156.465H399.296V198ZM424.061 198H413.856V156.465H424.061V198ZM394.973 172.52H417.691V181.002H394.973V172.52ZM434.839 198V156.465H444.784V198H434.839ZM437.796 198V189.517H463.926V198H437.796ZM440.656 181.002V172.845H463.146V181.002H440.656ZM437.764 164.85V156.465H463.634V164.85H437.764ZM496.907 198L496.095 190.167C495.965 188.781 495.694 187.654 495.282 186.787C494.871 185.899 494.242 185.249 493.397 184.837C492.552 184.404 491.426 184.187 490.017 184.187L480.625 184.155V176.387L490.407 176.355C492.531 176.355 494.058 175.889 494.99 174.957C495.921 174.026 496.387 172.628 496.387 170.765V170.115C496.387 168.273 495.921 166.897 494.99 165.987C494.08 165.056 492.541 164.59 490.375 164.59H480.56V156.465H491.837C496.929 156.465 500.645 157.451 502.985 159.422C505.346 161.394 506.527 164.232 506.527 167.937V168.782C506.527 171.577 505.812 173.755 504.382 175.315C502.952 176.875 500.775 177.763 497.85 177.98V179.41L495.77 178.012C498.283 178.186 500.233 178.706 501.62 179.572C503.006 180.439 504.025 181.652 504.675 183.212C505.346 184.751 505.834 186.668 506.137 188.965L507.34 198H496.907ZM473.572 198V156.465H483.452V179.182L483.517 182.952V198H473.572ZM526.35 198H516.178V156.465H526.35V198ZM521.963 189.452H543.673V198H521.963V189.452ZM567.843 199.008C561.798 199.008 557.259 197.491 554.226 194.457C551.214 191.424 549.708 187.058 549.708 181.36V173.462C549.708 167.742 551.225 163.333 554.258 160.235C557.313 157.115 561.841 155.555 567.843 155.555C573.845 155.555 578.362 157.115 581.396 160.235C584.451 163.333 585.978 167.742 585.978 173.462V181.36C585.978 187.058 584.461 191.424 581.428 194.457C578.395 197.491 573.866 199.008 567.843 199.008ZM567.843 190.622C570.465 190.622 572.415 189.853 573.693 188.315C574.971 186.777 575.611 184.621 575.611 181.847V172.942C575.611 170.039 574.971 167.807 573.693 166.247C572.415 164.687 570.465 163.907 567.843 163.907C565.221 163.907 563.271 164.687 561.993 166.247C560.715 167.807 560.076 170.039 560.076 172.942V181.847C560.076 184.621 560.715 186.777 561.993 188.315C563.271 189.853 565.221 190.622 567.843 190.622ZM611.768 198.91C605.853 198.91 601.444 197.35 598.54 194.23C595.659 191.088 594.218 186.614 594.218 180.807V173.43C594.218 167.732 595.669 163.333 598.573 160.235C601.476 157.115 605.853 155.555 611.703 155.555C613.263 155.555 614.704 155.674 616.025 155.912C617.347 156.151 618.549 156.476 619.633 156.887C620.716 157.277 621.669 157.722 622.493 158.22L623.24 166.93C621.962 166.258 620.554 165.673 619.015 165.175C617.499 164.655 615.733 164.395 613.718 164.395C610.62 164.395 608.323 165.229 606.828 166.897C605.354 168.544 604.618 170.862 604.618 173.852V180.417C604.618 183.386 605.365 185.704 606.86 187.372C608.377 189.041 610.793 189.875 614.108 189.875C616.058 189.875 617.802 189.615 619.34 189.095C620.879 188.575 622.287 187.947 623.565 187.21L622.818 196.115C621.994 196.613 621.03 197.079 619.925 197.512C618.82 197.924 617.585 198.26 616.22 198.52C614.877 198.78 613.393 198.91 611.768 198.91ZM656.162 198L644.234 179.8H641.699V173.69H644.234L655.999 156.465H667.504L652.782 177.33V175.055L667.959 198H656.162ZM632.632 198V156.465H642.707V198H632.632Z" fill="#323232"/>
<path d="M48.4057 193.413C49.1829 190.194 48.1075 185.782 47.4727 183.979L66.2128 185.309C69.4699 178.83 77.4494 169.358 80.8268 165.67C81.9702 164.01 87.1512 163.423 89.5987 163.337C90.6645 162.618 92.5212 162.994 93.3164 163.272C98.2302 165.504 97.2269 166.449 96.111 166.643C91.3802 165.19 87.4226 168.13 86.0351 169.782C84.2898 171.337 80.105 180.494 78.2308 184.878C75.7874 192.491 71.409 198.063 69.5252 199.898C69.415 200 69.3044 200.1 69.1934 200.198C63.7955 204.953 57.4653 204.436 54.9308 203.559C49.8202 202.312 48.4513 196.276 48.4057 193.413Z" fill="#0D0D0D"/>
<path d="M67.5999 187.039C67.3598 189.019 62.5801 189.722 56.924 188.608C51.268 187.494 46.8774 184.985 47.1175 183.005C47.3575 181.024 52.1372 180.322 57.7933 181.436C63.4494 182.55 67.8399 185.058 67.5999 187.039Z" fill="#323232"/>
<path d="M62.4748 186.008C62.3554 186.993 59.978 187.343 57.1647 186.789C54.3515 186.235 52.1677 184.987 52.287 184.002C52.4064 183.017 54.7838 182.667 57.5971 183.221C60.4104 183.775 62.5942 185.023 62.4748 186.008Z" fill="white"/>
<path d="M10.7057 44.5898C4.12787 46.6853 0.494249 53.7165 2.58978 60.2943C4.68531 66.8721 11.7165 70.5058 18.2943 68.4102L10.7057 44.5898ZM151.046 13L154.758 1.06395C152.312 0.303302 149.692 0.312318 147.251 1.08978L151.046 13ZM297.004 58.3947L309.19 61.1783C310.645 54.8115 306.953 48.3982 300.716 46.4587L297.004 58.3947ZM265.446 196.553L274.362 205.313C275.984 203.662 277.116 201.593 277.632 199.336L265.446 196.553ZM151.046 313L141.803 321.416C144.116 323.956 147.373 325.433 150.809 325.498C154.244 325.563 157.555 324.211 159.962 321.76L151.046 313ZM79.4192 215.769L71.0036 206.526L52.5183 223.357L60.9339 232.6L79.4192 215.769ZM25.2519 56.0356C23.949 49.2561 17.3969 44.8165 10.6174 46.1194C3.83794 47.4223 -0.60171 53.9744 0.7012 60.7539L25.2519 56.0356ZM20.4253 163.385L22.7845 175.661L47.3352 170.943L44.9761 158.667L20.4253 163.385ZM18.2943 68.4102L154.84 24.9102L147.251 1.08978L10.7057 44.5898L18.2943 68.4102ZM147.333 24.936L293.292 70.3308L300.716 46.4587L154.758 1.06395L147.333 24.936ZM284.818 55.6111L253.259 193.769L277.632 199.336L309.19 61.1783L284.818 55.6111ZM256.529 187.793L142.129 304.24L159.962 321.76L274.362 205.313L256.529 187.793ZM160.288 304.584L79.4192 215.769L60.9339 232.6L141.803 321.416L160.288 304.584ZM0.7012 60.7539L20.4253 163.385L44.9761 158.667L25.2519 56.0356L0.7012 60.7539Z" fill="#FF0000"/>
<path d="M173.23 56.4096L114.978 62.8886L114.807 117.902L140.114 118.31L109.867 124.678L109.554 120.752C78.3178 126.166 73.912 134.54 75.6136 138.051C84.6351 147.296 137.958 140.867 163.492 136.497L150.891 142.669L153.878 153.37C158.37 154.712 146.11 180.629 139.418 193.42L138.163 177.719L128.178 178.518L120.898 156.006L114.735 166.526L116.207 184.944L78.1661 192.846C96.1942 192.864 132.116 243.027 147.823 268.107C187.417 214.865 226.204 187.092 240.648 179.86L206.544 172.254L202.878 168.293L197.874 143.776L182.925 151.048L186.658 129.175C221.584 118.119 228.575 108.809 227.704 105.536C226.902 98.5504 200.72 101.919 187.729 104.477L173.23 56.4096Z" fill="black" stroke="black"/>
</svg>
